<?xml version="1.0" encoding="utf-8"?>
<!-- Generator: Adobe Illustrator 26.4.1, SVG Export Plug-In . SVG Version: 6.00 Build 0)  -->
<svg version="1.1" id="Layer_1" xmlns="http://www.w3.org/2000/svg" xmlns:xlink="http://www.w3.org/1999/xlink" x="0px" y="0px"
	 width="165px" height="33px" viewBox="0 0 165 33" style="enable-background:new 0 0 165 33;" xml:space="preserve">
<style type="text/css">
	.st0{fill:#FFFFFF;}
</style>
<path class="st0" d="M81.38,19.09c0,8.04,6.43,13.91,14.61,13.91c8.17,0,14.61-5.86,14.61-13.91V0.64h-7.92v17.5
	c0,4.33-2.9,7.24-6.72,7.24c-3.82,0-6.72-2.91-6.72-7.24V0.64h-7.91L81.38,19.09z"/>
<path class="st0" d="M131.75,8.05h9.44v24.31h7.91V8.05h9.44v-7.4h-26.79V8.05z"/>
<path class="st0" d="M126.64,0.64h-7.91v31.72h7.91V0.64z"/>
<path class="st0" d="M49.42,8.05h9.44v24.31h7.91V8.05h9.44v-7.4H49.42V8.05z"/>
<path class="st0" d="M7.91,0.64H0v31.72h7.91V16.5V0.64z"/>
<path class="st0" d="M45.25,13.91C45.25,5.87,38.82,0,30.64,0S16.03,5.86,16.03,13.91v18.45h7.91v-17.5c0-4.33,2.9-7.24,6.72-7.24
	c3.81,0,6.72,2.91,6.72,7.24v17.5h7.91L45.25,13.91z"/>
</svg>
